# xmcd
# Track frame offsets:
# 150
# 15062
# 28303
# 46904
# 62594
# 77147
# 94126
# 109954
# 129781
# 146489
# 165727
# 182437
# 199428
# 216689
# 233885
#
# Disc length: 3291 seconds
# Revision: 0
# Processed by: cddbd v1.5.1PL0 Copyright (c) Steve Scherf et al.
# Submitted via: VisiTrax 2.9.10.228 - For more info visit www.synapsa.com
#
DISCID=cd0cd90f
DTITLE=Anderson, John - CB90092
DYEAR=1900
DGENRE=Karaoke
TTITLE0=Swingin'
TTITLE1=Straight Tequila Night
TTITLE2=Seminole Wind
TTITLE3=Let Go Of The Stone
TTITLE4=Money In The Bank
TTITLE5=I Wish I Could Have Been There
TTITLE6=Bend Until It Breaks
TTITLE7=Mississippi Moon
TTITLE8=Somebody Slap Me
TTITLE9=Small Town
TTITLE10=Takin' The Country Back
TTITLE11=You Ain't Hurt Nothin' Yet
TTITLE12=Nobody's Got It All
TTITLE13=When It Comes To You
TTITLE14=I Fell In The Water
EXTD=
EXTT0=
EXTT1=
EXTT2=
EXTT3=
EXTT4=
EXTT5=
EXTT6=
EXTT7=
EXTT8=
EXTT9=
EXTT10=
EXTT11=
EXTT12=
EXTT13=
EXTT14=
PLAYORDER=
